<svg t="1698327918903" class="icon" viewBox="0 0 1024 1024" version="1.1" xmlns="http://www.w3.org/2000/svg" p-id="4150" data-spm-anchor-id="a313x.search_index.0.i0.69223a81epmMu5" width="14" height="14"><path d="M693.786947 672.983579a470.608842 470.608842 0 0 0-134.170947-13.312l-6.063158 20.614737c70.251789 27.028211 133.632 56.32 190.221474 87.821473 14.524632-6.871579 21.584842-18.189474 21.153684-33.926736-3.179789-29.911579-26.920421-50.283789-71.141053-61.197474z" p-id="4151" fill="#1296db"></path><path d="M740.729263 649.377684V498.526316c1.994105-44.409263-20.992-66.021053-69.066105-64.808421h-131.422316v-46.645895h247.107369c0.431158-14.120421-7.275789-21.207579-23.013053-21.207579h-113.25979v-80.545684h106.576843c0.431158-14.120421-7.060211-21.207579-22.366316-21.207579h-84.210527V246.568421c1.589895-30.666105-13.150316-45.217684-44.220631-43.600842h-23.632842v61.170526h-154.462316V246.568421c1.212632-30.666105-13.931789-45.217684-45.433263-43.600842h-23.013053v61.170526H255.568842c0 14.551579 7.060211 21.611789 21.207579 21.207579h83.590737v80.545684H226.492632c0 14.551579 7.464421 21.611789 22.42021 21.207579h227.759158v46.645895h-199.868632v215.632842h159.312843a1169.030737 1169.030737 0 0 1-204.126316 96.282948l3.637894 21.207579c58.152421-3.233684 109.837474-11.317895 155.055158-24.225685 48.855579-11.290947 73.889684-32.714105 75.102316-64.188631 0-11.317895-4.446316-20.992-13.312-29.076211h288.256z m-65.401263-21.827368h-135.060211v-76.90779h135.060211v76.90779zM635.957895 455.545263c27.486316-0.808421 40.582737 12.503579 39.370105 39.962948v33.333894h-135.060211v-73.296842H635.957895z m-207.144421-89.653895v-80.545684h154.462315v80.545684h-154.462315z m-86.608842 89.653895h134.467368v73.296842h-134.467368v-73.296842z m0 172.005053v-76.90779h134.467368v76.90779h-134.467368z" p-id="4152" fill="#1296db"></path></svg>